<svg height="512pt" viewBox="-61 0 512 512" width="512pt" xmlns="http://www.w3.org/2000/svg"><path d="m345 60c-24.808594 0-45-20.191406-45-45v-15h-210v15c0 24.808594-20.191406 45-45 45h-45v187.261719c0 119.46875 76.460938 225.226562 190.261719 263.160156l4.738281 1.578125 4.738281-1.578125c113.800781-37.933594 190.261719-143.691406 190.261719-263.160156v-187.261719zm0 0" fill="#fdbf00"/><path d="m390 60v187.261719c0 119.46875-76.460938 225.226562-190.261719 263.160156l-4.738281 1.578125v-512h105v15c0 24.808594 20.191406 45 45 45zm0 0" fill="#ff9100"/><path d="m318.75 116.679688c-27-6.96875-50.578125-24.910157-64.679688-49.210938l-4.332031-7.46875h-109.476562l-4.332031 7.46875c-14.101563 24.300781-37.679688 42.242188-64.679688 49.210938l-11.25 2.910156v127.671875c0 42.359375 12.191406 83.378906 35.25 118.628906 22.851562 34.929687 55.21875 62.488281 93.621094 79.679687l6.128906 2.75 6.128906-2.75c38.402344-17.191406 70.769532-44.75 93.621094-79.679687 23.058594-35.25 35.25-76.269531 35.25-118.628906v-127.671875zm0 0" fill="#fff7cc"/><path d="m330 119.589844v127.671875c0 42.359375-12.191406 83.378906-35.25 118.628906-22.851562 34.929687-55.21875 62.488281-93.621094 79.679687l-6.128906 2.75v-388.320312h54.738281l4.332031 7.46875c14.101563 24.300781 37.679688 42.242188 64.679688 49.210938zm0 0" fill="#ffe6b3"/><path d="m195 242c-24.8125 0-45-20.1875-45-45s20.1875-45 45-45 45 20.1875 45 45-20.1875 45-45 45zm0 0" fill="#ffbfab"/><path d="m195 152v90c24.8125 0 45-20.1875 45-45s-20.1875-45-45-45zm0 0" fill="#ffa78f"/><path d="m195 242c-33.078125 0-60 26.921875-60 60v30h120v-30c0-33.078125-26.921875-60-60-60zm0 0" fill="#725d57"/><path d="m255 302v30h-60v-90c33.078125 0 60 26.921875 60 60zm0 0" fill="#53433f"/></svg>