<svg height="512pt" viewBox="0 0 512 512" width="512pt" xmlns="http://www.w3.org/2000/svg"><path d="m247.171875 459.035156-123.585937 52.964844v-512l202.277343 64.734375c10.96875 3.507813 18.410157 13.703125 18.414063 25.21875v95.425781zm0 0" fill="#35495e"/><path d="m512 344.277344c0 92.628906-75.09375 167.722656-167.722656 167.722656-92.632813 0-167.726563-75.09375-167.726563-167.722656 0-92.632813 75.09375-167.726563 167.726563-167.726563 92.628906 0 167.722656 75.09375 167.722656 167.726563zm0 0" fill="#e64c3c"/><path d="m17.65625 0h105.929688v512h-105.929688c-9.75 0-17.65625-7.90625-17.65625-17.65625v-476.6875c0-9.75 7.90625-17.65625 17.65625-17.65625zm0 0" fill="#7f8c8d"/><path d="m52.964844 123.585938h17.65625c9.75 0 17.65625 7.90625 17.65625 17.65625v370.757812h-52.96875v-370.757812c0-9.75 7.90625-17.65625 17.65625-17.65625zm0 0" fill="#35495e"/><path d="m35.308594 388.414062h52.96875v123.585938h-52.96875zm0 0" fill="#95a5a5"/><path d="m88.277344 61.792969c0 14.625-11.859375 26.484375-26.484375 26.484375s-26.484375-11.859375-26.484375-26.484375 11.859375-26.484375 26.484375-26.484375 26.484375 11.859375 26.484375 26.484375zm0 0" fill="#95a5a5"/><g fill="#f0c419"><path d="m379.585938 344.277344c-3.890626.003906-7.328126-2.542969-8.457032-6.265625-1.132812-3.722657.3125-7.75 3.550782-9.90625l22.5625-15.035157v-30.585937c0-4.878906 3.953124-8.828125 8.828124-8.828125s8.828126 3.949219 8.828126 8.828125v30.585937c-.003907 5.902344-2.953126 11.414063-7.867188 14.6875l-22.546875 15.007813c-1.445313.976563-3.152344 1.503906-4.898437 1.511719zm0 0"/><path d="m406.070312 432.550781c-4.875 0-8.828124-3.953125-8.828124-8.828125v-30.585937l-22.554688-15.007813c-4.058594-2.703125-5.152344-8.1875-2.445312-12.242187 2.707031-4.058594 8.1875-5.152344 12.242187-2.445313l22.546875 15.007813c4.914062 3.273437 7.863281 8.785156 7.867188 14.6875v30.585937c0 4.875-3.953126 8.828125-8.828126 8.828125zm0 0"/><path d="m308.964844 344.277344c-1.738282-.003906-3.441406-.519532-4.890625-1.484375l-22.542969-15.007813c-4.925781-3.277344-7.882812-8.800781-7.875-14.714844v-30.585937c0-4.878906 3.949219-8.828125 8.828125-8.828125 4.875 0 8.824219 3.949219 8.824219 8.828125v30.585937l22.554687 15.007813c3.261719 2.148437 4.726563 6.1875 3.59375 9.925781-1.128906 3.738282-4.585937 6.289063-8.492187 6.273438zm0 0"/><path d="m406.070312 361.929688h-26.484374c-4.875 0-8.828126-3.949219-8.828126-8.828126 0-4.875 3.953126-8.824218 8.828126-8.824218h26.484374c4.875 0 8.828126 3.949218 8.828126 8.824218 0 4.878907-3.953126 8.828126-8.828126 8.828126zm0 0"/><path d="m282.484375 432.550781c-4.878906 0-8.828125-3.953125-8.828125-8.828125v-30.585937c0-5.902344 2.953125-11.414063 7.863281-14.6875l22.546875-15.007813c2.625-1.75 5.980469-1.96875 8.808594-.570312 2.828125 1.394531 4.695312 4.195312 4.902344 7.34375.203125 3.148437-1.289063 6.164062-3.914063 7.914062l-22.554687 15.007813v30.585937c0 4.875-3.949219 8.828125-8.824219 8.828125zm0 0"/><path d="m308.964844 361.929688h-26.480469c-4.878906 0-8.828125-3.949219-8.828125-8.828126 0-4.875 3.949219-8.824218 8.828125-8.824218h26.480469c4.875 0 8.828125 3.949218 8.828125 8.824218 0 4.878907-3.953125 8.828126-8.828125 8.828126zm0 0"/></g><path d="m450.207031 141.242188c-4.875 0-8.828125-3.953126-8.828125-8.828126v-61.792968c0-4.875 3.953125-8.828125 8.828125-8.828125s8.828125 3.953125 8.828125 8.828125v61.792968c0 4.875-3.953125 8.828126-8.828125 8.828126zm0 0" fill="#e64c3c"/><path d="m459.035156 167.722656c0 4.875-3.953125 8.828125-8.828125 8.828125s-8.828125-3.953125-8.828125-8.828125 3.953125-8.824218 8.828125-8.824218 8.828125 3.949218 8.828125 8.824218zm0 0" fill="#e64c3c"/><path d="m379.585938 328.121094v24.980468c-22.074219 11.742188-48.542969 11.742188-70.621094 0v-24.980468c-.011719-2.742188 1.074218-5.375 3.011718-7.316406 1.941407-1.9375 4.574219-3.023438 7.316407-3.011719h49.964843c2.742188-.011719 5.375 1.074219 7.316407 3.011719 1.9375 1.941406 3.023437 4.574218 3.011719 7.316406zm0 0" fill="#f29c1f"/><path d="m379.585938 353.101562v26.484376c0 19.5-15.808594 35.3125-35.308594 35.3125-19.503906 0-35.3125-15.8125-35.3125-35.3125v-26.484376c22.078125 11.742188 48.546875 11.742188 70.621094 0zm0 0" fill="#f0c419"/><path d="m370.757812 308.964844v8.828125h-52.964843v-8.828125c0-14.625 11.855469-26.480469 26.484375-26.480469 14.625 0 26.480468 11.855469 26.480468 26.480469zm0 0" fill="#f0c419"/></svg>