<svg xmlns="http://www.w3.org/2000/svg" width="31.818" height="42" viewBox="0 0 31.818 42">
  <path id="doctor" d="M67.957,5.505a1.026,1.026,0,0,1-1.026,1.026h-.375v.375a1.026,1.026,0,1,1-2.052,0V6.531h-.375a1.026,1.026,0,0,1,0-2.052H64.5V4.1a1.026,1.026,0,1,1,2.052,0v.375h.375A1.026,1.026,0,0,1,67.957,5.505Zm-8.323,4.718a1.044,1.044,0,0,1,.007-.12,1.044,1.044,0,0,1-.007-.12V1.026A1.026,1.026,0,0,1,60.66,0H70.4a1.026,1.026,0,0,1,1.026,1.026V9.984a1.043,1.043,0,0,1-.007.12,1.044,1.044,0,0,1,.007.12,5.9,5.9,0,1,1-11.792,0Zm9.659.787H61.767a3.845,3.845,0,0,0,7.527,0ZM61.686,8.959h7.688V2.052H61.686ZM72.762,28.522a1.026,1.026,0,0,0-1.026,1.026v10.4H59.323v-10.4a1.026,1.026,0,1,0-2.052,0V40.974A1.026,1.026,0,0,0,58.3,42H72.762a1.026,1.026,0,0,0,1.026-1.026V29.548A1.026,1.026,0,0,0,72.762,28.522Zm8.113,7.7a1.025,1.025,0,0,1-1.378-.454L74.39,25.645c-1.04-2.061-2.484-4.161-5.314-4.735v7.821a2.623,2.623,0,1,1-2.052,0V20.757H63.705v1.687a2.313,2.313,0,0,1,1.6,2.11v1.928a1.026,1.026,0,1,1-2.052,0V24.554a.651.651,0,0,0-.571-.241.643.643,0,0,0-.571.244v1.924a1.026,1.026,0,1,1-2.052,0V24.554a2.313,2.313,0,0,1,1.6-2.11V20.985c-2.614.665-3.985,2.681-4.984,4.66L51.563,35.767a1.026,1.026,0,1,1-1.832-.924l5.107-10.122c1.3-2.582,3.628-6.016,8.742-6.016h3.9c5.114,0,7.438,3.433,8.742,6.016l5.107,10.122A1.026,1.026,0,0,1,80.875,36.221ZM68.621,31.146a.572.572,0,0,0-.556-.571h-.03a.571.571,0,1,0,.586.571Z" transform="translate(-49.621)" fill="#fff"/>
</svg>
