<svg xmlns="http://www.w3.org/2000/svg" width="41.895" height="36" viewBox="0 0 41.895 36">
  <path id="lungs" d="M18.442,46.216v12.7a3.2,3.2,0,0,1-2.978,3.372H8.473a7.443,7.443,0,0,1-6.561-3.505A14.641,14.641,0,0,1,0,50.905,31.742,31.742,0,0,1,4.225,35.625c3.053-5.236,7.045-8.12,11.239-8.12a3.2,3.2,0,0,1,2.978,3.372v3.465a1.121,1.121,0,1,1-2.243,0V30.877c0-.646-.388-1.129-.736-1.129-4.538,0-7.775,4.39-9.3,7.007a29.834,29.834,0,0,0-3.92,14.151A12.466,12.466,0,0,0,3.8,57.565,5.229,5.229,0,0,0,8.473,60.04h6.991c.347,0,.736-.483.736-1.129v-12.7a1.121,1.121,0,1,1,2.243,0ZM37.67,35.625c-3.053-5.236-7.044-8.12-11.238-8.12a3.2,3.2,0,0,0-2.978,3.372v3.507a1.121,1.121,0,0,0,2.243,0V30.877c0-.646.388-1.129.736-1.129,4.538,0,7.775,4.39,9.3,7.007a29.833,29.833,0,0,1,3.92,14.151,12.467,12.467,0,0,1-1.556,6.66,5.229,5.229,0,0,1-4.675,2.475h-6.99c-.347,0-.736-.483-.736-1.129V46.05a1.121,1.121,0,1,0-2.243,0V58.911a3.2,3.2,0,0,0,2.978,3.372h6.99a7.443,7.443,0,0,0,6.561-3.505,14.642,14.642,0,0,0,1.912-7.873A31.742,31.742,0,0,0,37.67,35.625ZM27.226,49.231a1.121,1.121,0,1,0,2.243,0v-3.27l2.953,1.4a1.121,1.121,0,0,0,.964-2.025l-4.362-2.075L22.069,35.8V27.4a1.121,1.121,0,1,0-2.243,0V35.8l-6.953,7.469L8.51,45.341a1.121,1.121,0,1,0,.964,2.025l2.953-1.4v3.27a1.121,1.121,0,0,0,2.243,0v-4.6l6.279-6.745,6.279,6.745v4.6Z" transform="translate(0 -26.283)" fill="#fff"/>
</svg>
