<svg xmlns="http://www.w3.org/2000/svg" width="69" height="69" viewBox="0 0 69 69">
  <g id="icons" transform="translate(-39 -41)">
    <path id="Path_83" data-name="Path 83" d="M34.5,0A34.5,34.5,0,1,1,0,34.5,34.5,34.5,0,0,1,34.5,0Z" transform="translate(39 41)" fill="#3a85c7"/>
    <path id="stethoscope" d="M72.647,6.317a1.294,1.294,0,1,1-1.294-1.294A1.294,1.294,0,0,1,72.647,6.317Zm5.023,0a6.327,6.327,0,0,1-5.147,6.208V35.47a12.486,12.486,0,1,1-24.973,0V29.52a7.743,7.743,0,0,1-6.56-7.642V8.551a3.374,3.374,0,0,1-2.2-3.159V3.369a3.369,3.369,0,0,1,6.737,0V5.392a3.374,3.374,0,0,1-2.2,3.159V21.878a5.39,5.39,0,1,0,10.78,0V8.551a3.374,3.374,0,0,1-2.2-3.159V3.369a3.369,3.369,0,0,1,6.737,0V5.392a3.374,3.374,0,0,1-2.2,3.159V21.878a7.743,7.743,0,0,1-6.56,7.642v5.95a10.146,10.146,0,1,0,20.292,0V12.525A6.317,6.317,0,1,1,77.67,6.317ZM54.252,5.392a1.028,1.028,0,0,0,2.057,0V3.369a1.028,1.028,0,0,0-2.057,0ZM43.188,3.369a1.028,1.028,0,0,0-2.057,0V5.392a1.028,1.028,0,0,0,2.057,0ZM75.329,6.317a3.976,3.976,0,1,0-3.994,3.976h.035A3.981,3.981,0,0,0,75.329,6.317Z" transform="translate(15.128 52.636)" fill="#fff"/>
  </g>
</svg>
