<svg xmlns="http://www.w3.org/2000/svg" width="40.442" height="42" viewBox="0 0 40.442 42">
  <path id="hospital" d="M24.348,7.358a.994.994,0,0,1,.994-.994h1.721V4.643a.994.994,0,1,1,1.988,0V6.364h1.721a.994.994,0,0,1,0,1.988H29.051v1.721a.994.994,0,1,1-1.988,0V8.352H25.342A.994.994,0,0,1,24.348,7.358Zm23.93,33.648a.994.994,0,0,1-.994.994H8.829a.994.994,0,0,1,0-1.988h3.813V7.358a.994.994,0,0,1,.994-.994h7.13a7.358,7.358,0,0,1,14.581,0h7.13a.994.994,0,0,1,.994.994V40.012h3.812A.994.994,0,0,1,48.277,41.006ZM22.687,7.358a5.369,5.369,0,1,0,5.37-5.369A5.376,5.376,0,0,0,22.687,7.358Zm4.376,25.494H21.935v7.16h5.127Zm7.116,0H29.051v7.16h5.128v-7.16Zm7.305-24.5H35.347a7.358,7.358,0,0,1-14.581,0H14.63v31.66h5.317V31.858a.994.994,0,0,1,.994-.994H35.172a.994.994,0,0,1,.994.994v8.154h5.317V8.352Zm-6.595,8.763h3.387a.994.994,0,0,1,.994.994v8.862a.994.994,0,0,1-.994.994H34.889a.994.994,0,0,1-.994-.994V18.109A.994.994,0,0,1,34.889,17.115Zm.994,8.862h1.4V19.1h-1.4Zm-5.139-7.868v8.862a.994.994,0,0,1-.994.994H26.363a.994.994,0,0,1-.994-.994V18.109a.994.994,0,0,1,.994-.994H29.75A.994.994,0,0,1,30.744,18.109Zm-1.988.994h-1.4v6.874h1.4Zm-6.537-.994v8.862a.994.994,0,0,1-.994.994H17.837a.994.994,0,0,1-.994-.994V18.109a.994.994,0,0,1,.994-.994h3.387A.994.994,0,0,1,22.219,18.109Zm-1.988.994h-1.4v6.874h1.4Z" transform="translate(-7.835)" fill="#fff"/>
</svg>
