<svg xmlns="http://www.w3.org/2000/svg" width="266.747" height="266.755" viewBox="0 0 266.747 266.755">
  <path id="stethoscope" d="M230.315,57.708a32.96,32.96,0,0,0-15.969,61.507v58c0,29.517-25.86,53.574-57.695,53.574-30.908,0-56.252-22.717-57.643-51.1a82.64,82.64,0,0,0,65.834-80.772V18.867A12.355,12.355,0,0,0,154.9,6.762L122.5.271a12.331,12.331,0,0,0-14.527,9.684l-1.648,8.088a12.331,12.331,0,0,0,9.684,14.527l15.814,3.142V98.249c0,27.25-21.738,49.813-48.989,50.071A49.468,49.468,0,0,1,32.917,98.867v-63.1l15.814-3.142a12.331,12.331,0,0,0,9.684-14.527l-1.6-8.088A12.331,12.331,0,0,0,42.292.323L9.942,6.71A12.411,12.411,0,0,0,0,18.867V98.919a82.546,82.546,0,0,0,65.988,80.772c1.339,46.568,41.468,84.069,90.611,84.069,49.968,0,90.663-38.841,90.663-86.542v-58a32.962,32.962,0,0,0-16.948-61.507Zm.464,41.21a8.242,8.242,0,1,1,8.242-8.242A8.266,8.266,0,0,1,230.778,98.919Z" transform="translate(1.5 1.495)" fill="none" stroke="#3a85c7" stroke-width="3"/>
</svg>
