<svg xmlns="http://www.w3.org/2000/svg" width="101.513" height="101.508" viewBox="0 0 101.513 101.508">
  <path id="stethoscope" d="M86.022,21.571a12.31,12.31,0,0,0-5.964,22.972V66.208c0,11.024-9.658,20.009-21.549,20.009-11.544,0-21.01-8.485-21.529-19.086A30.866,30.866,0,0,0,61.568,36.963V7.064a4.615,4.615,0,0,0-3.713-4.521L45.752.119a4.606,4.606,0,0,0-5.426,3.617l-.616,3.021a4.606,4.606,0,0,0,3.617,5.426l5.907,1.174V36.713a18.471,18.471,0,1,1-36.941.231V13.375L18.2,12.2a4.606,4.606,0,0,0,3.617-5.426l-.6-3.021A4.606,4.606,0,0,0,15.8.138L3.713,2.524A4.635,4.635,0,0,0,0,7.064v29.9A30.831,30.831,0,0,0,24.646,67.131c.5,17.393,15.488,31.4,33.843,31.4,18.663,0,33.862-14.507,33.862-32.323V44.544a12.311,12.311,0,0,0-6.33-22.972Zm.173,15.392a3.078,3.078,0,1,1,3.078-3.078A3.087,3.087,0,0,1,86.195,36.963Z" transform="translate(100.031 1.5) rotate(90)" fill="#fff" stroke="#3a85c7" stroke-width="3"/>
</svg>
