<svg xmlns="http://www.w3.org/2000/svg" width="228.118" height="260.277" viewBox="0 0 228.118 260.277">
  <path id="user-md" d="M112.559,128.639A64.319,64.319,0,1,0,48.24,64.319,64.314,64.314,0,0,0,112.559,128.639Zm-60.3,84.419A12.06,12.06,0,1,0,64.319,201,12.031,12.031,0,0,0,52.259,213.058ZM160.8,145.02v24.622a40.259,40.259,0,0,1,32.16,39.4v20.954a8.065,8.065,0,0,1-6.482,7.889L170.3,241.1a4,4,0,0,1-4.723-3.166l-1.558-7.889a3.975,3.975,0,0,1,3.166-4.723l9.7-1.96V209.038c0-31.557-48.24-32.712-48.24.955v13.417l9.7,1.96a4.077,4.077,0,0,1,3.166,4.723l-1.558,7.889a4.077,4.077,0,0,1-4.723,3.166l-15.678-2.11a8.029,8.029,0,0,1-6.934-7.99V209.038a40.3,40.3,0,0,1,32.16-39.4V146.929c-1.105.352-2.211.553-3.316.955a86.932,86.932,0,0,1-57.686,0,55.535,55.535,0,0,0-11.356-2.613v41a28.14,28.14,0,1,1-16.08,0v-40.4A67.361,67.361,0,0,0,0,212.254v22.512a22.539,22.539,0,0,0,22.512,22.512H202.606a22.539,22.539,0,0,0,22.512-22.512V212.254A67.435,67.435,0,0,0,160.8,145.02Z" transform="translate(1.5 1.5)" fill="none" stroke="#c98b42" stroke-width="3"/>
</svg>
